:SAMPLES-PER-SECOND 30
:FULLY-SPECIFIED
:DEGREES
409
root  -18.681 21.2143 -5.83524 -141.619 86.8695 -165.017
RightUpLeg  -54.6598 -10.9982 -10.2747
RightLeg  128.611 4.16845 -4.23545
RightFoot  -30.4401 3.75375 23.2655
RightToes  -1.33073e-015 0 -3.6325e-017
Spine  60.8243 -9.17015 11.2954
Spine1  -0.512059 -2.57672 0.0452988
HEad  -44.9732 -3.08795 -1.74521
LeftShoulder1  1.73576 -14.6878 -1.26412
LeftArm  -4.25306 -69.9065 -59.3932
LeftForeArm  55.9975 -4.91182 -2.61489
LeftHand  -0.244104 0.0205437 5.32207
RightShoulder  6.07386 15.366 26.0789
RightArm  4.25131 32.7195 23.1021
RightForeArm  21.827 29.7565 5.24726
RightHand  -29.3921 41.112 -65.2876
LeftUpLeg  -42.5446 1.74457 -7.04481
LeftLeg  120.686 -10.8852 15.9334
LeftFoot  -9.51379 0.146969 -5.61909
LeftToes  -7.82198e-011 2.46994e-011 -7.94165e-012
410
root  -18.1413 21.272 -5.75338 -163.431 85.2852 172.866
RightUpLeg  -52.882 -11.945 -11.1024
RightLeg  128.237 4.18813 -4.31972
RightFoot  -29.4905 3.62193 23.6365
RightToes  -1.33073e-015 0 -3.6325e-017
Spine  60.1873 -9.26562 10.2729
Spine1  -0.740792 -3.67516 1.59036
HEad  -43.8874 -3.14589 -1.78729
LeftShoulder1  1.92915 -15.6062 -1.88491
LeftArm  -4.27933 -68.4821 -59.3492
LeftForeArm  56.4782 -3.9023 -2.61689
LeftHand  -0.244104 0.0205437 5.32207
RightShoulder  5.71955 14.6105 25.4455
RightArm  -2.83608 33.2058 22.3948
RightForeArm  26.0427 35.839 6.54746
RightHand  -29.0351 41.0596 -64.6902
LeftUpLeg  -40.9453 -0.0130761 -7.26962
LeftLeg  119.384 -10.4426 16.0653
LeftFoot  -9.97742 0.130132 -5.90905
LeftToes  -7.82198e-011 2.46994e-011 -7.94165e-012
411
root  -17.6246 21.303 -5.62877 -171.162 83.6267 164.653
RightUpLeg  -51.625 -12.6525 -11.5269
RightLeg  127.966 4.23366 -4.41849
RightFoot  -28.3204 3.41216 23.843
RightToes  -1.33073e-015 0 -3.6325e-017
Spine  59.6204 -9.39068 9.70295
Spine1  -1.4932 -4.37611 2.53065
HEad  -42.6704 -3.58018 -1.77422
LeftShoulder1  2.20696 -16.8817 -2.70983
LeftArm  -4.25928 -66.7707 -59.0811
LeftForeArm  56.9169 -3.19723 -2.76284
LeftHand  -0.244104 0.0205437 5.32207
RightShoulder  5.21872 13.5718 24.3942
RightArm  -8.61668 34.894 21.5743
RightForeArm  26.9777 41.1318 8.01914
RightHand  -28.0719 40.53 -63.5141
LeftUpLeg  -39.7232 -1.46863 -7.31502
LeftLeg  118.17 -10.1649 16.391
LeftFoot  -10.4262 0.113453 -6.4041
LeftToes  -7.82198e-011 2.46994e-011 -7.94165e-012
412
root  -17.1195 21.2926 -5.43454 -176.613 82.4491 158.374
RightUpLeg  -51.1161 -12.8837 -11.8427
RightLeg  127.904 4.20716 -4.39823
RightFoot  -27.0891 3.16394 23.9007
RightToes  -1.33073e-015 0 -3.6325e-017
Spine  59.0191 -9.35805 9.06568
Spine1  -2.41023 -4.77983 2.566
HEad  -41.7822 -3.9791 -1.43458
LeftShoulder1  2.44687 -17.9375 -3.36657
LeftArm  -3.88633 -65.1223 -59.2422
LeftForeArm  57.5946 -2.65136 -2.93719
LeftHand  -0.244104 0.0205437 5.32207
RightShoulder  4.64807 12.4842 22.8319
RightArm  -13.2368 37.6911 20.7014
RightForeArm  25.3681 45.1068 9.46083
RightHand  -26.1374 39.2449 -61.3033
LeftUpLeg  -38.8725 -2.42426 -7.34696
LeftLeg  116.992 -9.87208 16.6794
LeftFoot  -10.9327 0.0904097 -6.97281
LeftToes  -7.82198e-011 2.46994e-011 -7.94165e-012
413
root  -16.6301 21.2566 -5.14828 176.626 81.136 150.809
RightUpLeg  -50.3906 -13.1788 -12.476
RightLeg  127.928 4.04285 -4.19916
RightFoot  -26.3975 3.0315 23.984
RightToes  -1.33073e-015 0 -3.6325e-017
Spine  58.5001 -9.30462 8.17764
Spine1  -3.09707 -5.2554 2.40225
HEad  -41.3674 -4.32612 -0.786317
LeftShoulder1  2.63878 -18.5103 -4.00936
LeftArm  -3.18323 -63.8485 -60.0966
LeftForeArm  58.7547 -2.16578 -3.03119
LeftHand  -0.244104 0.0205437 5.32207
RightShoulder  4.06164 11.5869 20.5412
RightArm  -17.6671 41.2036 19.6056
RightForeArm  22.9022 47.1538 10.4165
RightHand  -23.7342 37.4892 -58.5079
LeftUpLeg  -38.06 -3.40694 -7.5235
LeftLeg  115.87 -9.41115 16.6505
LeftFoot  -11.2782 0.0715843 -7.35522
LeftToes  -7.82198e-011 2.46994e-011 -7.94165e-012
414
root  -16.1487 21.251 -4.79212 171.332 79.4691 144.881
RightUpLeg  -49.1632 -13.9733 -12.8934
RightLeg  127.714 4.07268 -4.26951
RightFoot  -26.3457 3.0151 23.9438
RightToes  -1.33073e-015 0 -3.6325e-017
Spine  58.1724 -9.45149 7.6626
Spine1  -3.65072 -5.64214 2.02543
HEad  -41.2215 -5.15256 0.213812
LeftShoulder1  2.84966 -18.9188 -4.81776
LeftArm  -2.12722 -62.892 -61.4955
LeftForeArm  60.3174 -1.86493 -3.12904
LeftHand  -0.244104 0.0205437 5.32207
RightShoulder  3.45991 10.7808 17.6417
RightArm  -22.7839 44.7679 18.0713
RightForeArm  20.4209 47.0045 10.5464
RightHand  -21.2345 35.4634 -55.4986
LeftUpLeg  -37.2743 -4.72596 -7.44357
LeftLeg  114.792 -8.70685 16.1328
LeftFoot  -11.3561 0.0669821 -7.95297
LeftToes  -7.82198e-011 2.46994e-011 -7.94165e-012
415
root  -15.6448 21.3241 -4.41277 170.089 78.3427 142.614
RightUpLeg  -48.5822 -14.9321 -11.914
RightLeg  126.968 4.68061 -5.14039
RightFoot  -26.5205 3.0359 23.8312
RightToes  -1.33073e-015 0 -3.6325e-017
Spine  57.7995 -9.79872 8.12691
Spine1  -4.39258 -5.51004 0.55326
HEad  -41.2052 -6.50254 1.59996
LeftShoulder1  3.02456 -19.3311 -5.41859
LeftArm  -0.917047 -61.9792 -63.0361
LeftForeArm  62.0134 -1.89065 -3.2933
LeftHand  -0.244104 0.0205437 5.32207
RightShoulder  2.88218 9.91096 14.6635
RightArm  -28.5177 48.3224 16.0578
RightForeArm  17.974 44.4713 9.76655
RightHand  -18.5441 32.9842 -52.1644
LeftUpLeg  -37.1035 -5.85026 -6.46107
LeftLeg  113.617 -7.8258 15.2703
LeftFoot  -11.2294 0.0762455 -9.07126
LeftToes  -7.82198e-011 2.46994e-011 -7.94165e-012
